<svg width="128" height="144" viewBox="0 0 128 144" fill="none" xmlns="http://www.w3.org/2000/svg">
<path d="M121.999 44.8477C122 40.9179 119.904 37.2864 116.501 35.321L69.5013 8.17722C66.0972 6.21123 61.9027 6.21123 58.4987 8.17722L11.4991 35.3212C8.09619 37.2865 6.00015 40.9178 6.0004 44.8474L6.0038 99.1469C6.00405 103.076 8.09968 106.706 11.5017 108.671L58.4981 135.819C61.9025 137.785 66.0975 137.785 69.502 135.819L116.495 108.676C119.897 106.711 121.993 103.081 121.994 99.1517L121.999 44.8477Z" fill="black"/>
<g clip-path="url(#clip0_79_29001)">
<rect width="66.978" height="66.9991" transform="matrix(0.865935 -0.500157 -8.3625e-05 1 64 72.001)" fill="black"/>
<rect width="55" height="55" rx="5.86667" transform="matrix(0.865935 -0.500157 -8.3625e-05 1 69.1951 75.0001)" fill="#FFC100"/>
</g>
<g clip-path="url(#clip1_79_29001)">
<rect width="66.9991" height="66.978" transform="matrix(-4.36931e-08 1 -0.865893 -0.50023 64 72.001)" fill="black"/>
<rect width="55" height="55" rx="5.86667" transform="matrix(-4.36931e-08 1 -0.865893 -0.50023 58.8046 74.9996)" fill="#00B9EF"/>
</g>
<g clip-path="url(#clip2_79_29001)">
<rect width="66.978" height="66.978" transform="matrix(0.865956 0.500121 -0.865956 0.500121 64 5)" fill="black"/>
<rect width="55" height="55" rx="5.86667" transform="matrix(0.865956 0.500121 -0.865956 0.500121 64 11.0015)" fill="#FF00CA"/>
</g>
<g style="mix-blend-mode:screen" opacity="0.16">
<g filter="url(#filter0_f_79_29001)">
<path d="M121.999 44.8477C122 40.9179 119.904 37.2864 116.501 35.321L69.5013 8.17722C66.0972 6.21123 61.9027 6.21123 58.4987 8.17722L11.4991 35.3212C8.09619 37.2865 6.00015 40.9178 6.0004 44.8474L6.0038 99.1469C6.00405 103.076 8.09968 106.706 11.5017 108.671L58.4981 135.819C61.9025 137.785 66.0975 137.785 69.502 135.819L116.495 108.676C119.897 106.711 121.993 103.081 121.994 99.1517L121.999 44.8477Z" fill="url(#paint0_angular_79_29001)"/>
</g>
</g>
<g style="mix-blend-mode:color-burn" opacity="0.12">
<g filter="url(#filter1_f_79_29001)">
<path d="M121.999 44.8477C122 40.9179 119.904 37.2864 116.501 35.321L69.5013 8.17722C66.0972 6.21123 61.9027 6.21123 58.4987 8.17722L11.4991 35.3212C8.09619 37.2865 6.00015 40.9178 6.0004 44.8474L6.0038 99.1469C6.00405 103.076 8.09968 106.706 11.5017 108.671L58.4981 135.819C61.9025 137.785 66.0975 137.785 69.502 135.819L116.495 108.676C119.897 106.711 121.993 103.081 121.994 99.1517L121.999 44.8477Z" fill="url(#paint1_angular_79_29001)"/>
</g>
</g>
<g style="mix-blend-mode:overlay" opacity="0.12">
<g filter="url(#filter2_f_79_29001)">
<path d="M121.999 44.8477C122 40.9179 119.904 37.2864 116.501 35.321L69.5013 8.17722C66.0972 6.21123 61.9027 6.21123 58.4987 8.17722L11.4991 35.3212C8.09619 37.2865 6.00015 40.9178 6.0004 44.8474L6.0038 99.1469C6.00405 103.076 8.09968 106.706 11.5017 108.671L58.4981 135.819C61.9025 137.785 66.0975 137.785 69.502 135.819L116.495 108.676C119.897 106.711 121.993 103.081 121.994 99.1517L121.999 44.8477Z" fill="url(#paint2_angular_79_29001)"/>
</g>
</g>
<g style="mix-blend-mode:overlay" opacity="0.2">
<path d="M121.999 44.8477C122 40.9179 119.904 37.2864 116.501 35.321L69.5013 8.17722C66.0972 6.21123 61.9027 6.21123 58.4987 8.17722L11.4991 35.3212C8.09619 37.2865 6.00015 40.9178 6.0004 44.8474L6.0038 99.1469C6.00405 103.076 8.09968 106.706 11.5017 108.671L58.4981 135.819C61.9025 137.785 66.0975 137.785 69.502 135.819L116.495 108.676C119.897 106.711 121.993 103.081 121.994 99.1517L121.999 44.8477Z" fill="url(#paint3_linear_79_29001)"/>
</g>
<g opacity="0.3" filter="url(#filter3_f_79_29001)">
<circle cx="64" cy="72" r="2" fill="white"/>
</g>
<defs>
<filter id="filter0_f_79_29001" x="0.000396729" y="0.702759" width="127.999" height="142.591" filterUnits="userSpaceOnUse" color-interpolation-filters="sRGB">
<feFlood flood-opacity="0" result="BackgroundImageFix"/>
<feBlend mode="normal" in="SourceGraphic" in2="BackgroundImageFix" result="shape"/>
<feGaussianBlur stdDeviation="3" result="effect1_foregroundBlur_79_29001"/>
</filter>
<filter id="filter1_f_79_29001" x="0.000396729" y="0.702759" width="127.999" height="142.591" filterUnits="userSpaceOnUse" color-interpolation-filters="sRGB">
<feFlood flood-opacity="0" result="BackgroundImageFix"/>
<feBlend mode="normal" in="SourceGraphic" in2="BackgroundImageFix" result="shape"/>
<feGaussianBlur stdDeviation="3" result="effect1_foregroundBlur_79_29001"/>
</filter>
<filter id="filter2_f_79_29001" x="0.000396729" y="0.702759" width="127.999" height="142.591" filterUnits="userSpaceOnUse" color-interpolation-filters="sRGB">
<feFlood flood-opacity="0" result="BackgroundImageFix"/>
<feBlend mode="normal" in="SourceGraphic" in2="BackgroundImageFix" result="shape"/>
<feGaussianBlur stdDeviation="3" result="effect1_foregroundBlur_79_29001"/>
</filter>
<filter id="filter3_f_79_29001" x="58" y="66" width="12" height="12" filterUnits="userSpaceOnUse" color-interpolation-filters="sRGB">
<feFlood flood-opacity="0" result="BackgroundImageFix"/>
<feBlend mode="normal" in="SourceGraphic" in2="BackgroundImageFix" result="shape"/>
<feGaussianBlur stdDeviation="2" result="effect1_foregroundBlur_79_29001"/>
</filter>
<radialGradient id="paint0_angular_79_29001" cx="0" cy="0" r="1" gradientUnits="userSpaceOnUse" gradientTransform="translate(64 72) rotate(149.112) scale(65.2553 65.4101)">
<stop offset="0.167709"/>
<stop offset="0.169172" stop-color="#EEEEEE"/>
<stop offset="0.501228" stop-color="#EEEEEE"/>
<stop offset="0.502778" stop-color="#7C7C7C"/>
<stop offset="0.83442" stop-color="#7C7C7C"/>
<stop offset="0.837618"/>
</radialGradient>
<radialGradient id="paint1_angular_79_29001" cx="0" cy="0" r="1" gradientUnits="userSpaceOnUse" gradientTransform="translate(64 72) rotate(149.112) scale(65.2553 65.4101)">
<stop offset="0.167709"/>
<stop offset="0.169172" stop-color="#EEEEEE"/>
<stop offset="0.501228" stop-color="#EEEEEE"/>
<stop offset="0.502778" stop-color="#7C7C7C"/>
<stop offset="0.83442" stop-color="#7C7C7C"/>
<stop offset="0.837618"/>
</radialGradient>
<radialGradient id="paint2_angular_79_29001" cx="0" cy="0" r="1" gradientUnits="userSpaceOnUse" gradientTransform="translate(64 72) rotate(149.112) scale(65.2553 65.4101)">
<stop offset="0.167709"/>
<stop offset="0.169172" stop-color="#EEEEEE"/>
<stop offset="0.501228" stop-color="#EEEEEE"/>
<stop offset="0.502778" stop-color="#7C7C7C"/>
<stop offset="0.83442" stop-color="#7C7C7C"/>
<stop offset="0.837618"/>
</radialGradient>
<linearGradient id="paint3_linear_79_29001" x1="64" y1="5" x2="42" y2="102" gradientUnits="userSpaceOnUse">
<stop stop-color="white"/>
<stop offset="1"/>
</linearGradient>
<clipPath id="clip0_79_29001">
<rect width="66.978" height="66.9991" rx="11" transform="matrix(0.865935 -0.500157 -8.3625e-05 1 64 72.001)" fill="white"/>
</clipPath>
<clipPath id="clip1_79_29001">
<rect width="66.9991" height="66.978" rx="11" transform="matrix(-4.36931e-08 1 -0.865893 -0.50023 64 72.001)" fill="white"/>
</clipPath>
<clipPath id="clip2_79_29001">
<rect width="66.978" height="66.978" rx="11" transform="matrix(0.865956 0.500121 -0.865956 0.500121 64 5)" fill="white"/>
</clipPath>
</defs>
</svg>
